<svg width="20" height="20" viewBox="0 0 20 20" fill="none" xmlns="http://www.w3.org/2000/svg">
<g clip-path="url(#clip0_492_14497)">
<g clip-path="url(#clip1_492_14497)">
<path fill-rule="evenodd" clip-rule="evenodd" d="M18.0309 17.0545H16.7941V18.7469C16.7941 19.3328 16.3222 19.8047 15.7364 19.8047H14.2718C13.6859 19.8047 13.214 19.3328 13.214 18.7469V17.0708H6.75346V18.7469C6.75346 19.3328 6.28153 19.8047 5.69569 19.8047H4.23108C3.64524 19.8047 3.17331 19.3328 3.17331 18.7469V17.0708H1.95281V3.7266C1.95281 2.48982 2.66884 1.59478 4.11717 1.04149C6.98129 -0.0813752 13.0024 -0.0813752 15.8828 1.04149C17.3312 1.59478 18.0472 2.48982 18.0472 3.7266V17.0545H18.0309ZM19.3002 6.76972H18.6819V10.2848H19.3002C19.6908 10.2848 20 9.97558 20 9.58502V7.46948C20 7.07892 19.6908 6.76972 19.3002 6.76972ZM0.699756 6.76972H1.31814V10.2848H0.699756C0.309194 10.2848 0 9.97558 0 9.58502V7.46948C0 7.07892 0.309194 6.76972 0.699756 6.76972ZM7.55085 1.59478H12.4491C12.5956 1.59478 12.7095 1.7087 12.7095 1.85516V2.70138C12.7095 2.84784 12.5956 2.96175 12.4491 2.96175H7.55085C7.40439 2.96175 7.29048 2.84784 7.29048 2.70138V1.85516C7.29048 1.7087 7.40439 1.59478 7.55085 1.59478ZM3.72661 3.9707H16.2083C16.371 3.9707 16.5175 4.11716 16.5175 4.27989V11.2449C16.5175 11.4076 16.371 11.5541 16.2083 11.5541H3.72661C3.56387 11.5541 3.41741 11.4076 3.41741 11.2449V4.27989C3.41741 4.11716 3.5476 3.9707 3.72661 3.9707ZM16.0456 14.0114C16.0456 13.7022 15.9317 13.4255 15.7201 13.214C15.5085 13.0024 15.2319 12.8885 14.9227 12.8885C14.6135 12.8885 14.3531 13.0024 14.1253 13.214C13.8975 13.4255 13.7998 13.7022 13.7998 14.0114C13.7998 14.3206 13.9138 14.581 14.1253 14.7925C14.3531 15.0041 14.6135 15.118 14.9227 15.118C15.2319 15.118 15.5085 15.0041 15.7201 14.7925C15.9479 14.581 16.0456 14.3206 16.0456 14.0114ZM6.20016 14.0114C6.20016 13.7022 6.08625 13.4255 5.87469 13.214C5.66314 13.0024 5.38649 12.8885 5.0773 12.8885C4.7681 12.8885 4.49146 13.0024 4.2799 13.214C4.06835 13.4255 3.95443 13.7022 3.95443 14.0114C3.95443 14.3206 4.05207 14.581 4.2799 14.7925C4.49146 15.0041 4.7681 15.118 5.0773 15.118C5.40277 15.118 5.66314 15.0041 5.87469 14.7925C6.08625 14.581 6.20016 14.3206 6.20016 14.0114Z" fill="#3D4D5C"/>
</g>
</g>
<defs>
<clipPath id="clip0_492_14497">
<rect width="20" height="20" fill="white"/>
</clipPath>
<clipPath id="clip1_492_14497">
<rect width="20" height="20" fill="white"/>
</clipPath>
</defs>
</svg>
