<svg width="20" height="20" viewBox="0 0 20 20" fill="none" xmlns="http://www.w3.org/2000/svg">
<g clip-path="url(#clip0_703_5207)">
<path d="M15.2661 0H13.5107V1.36364H15.2661C15.8719 1.36364 16.3631 1.8724 16.3631 2.5V4.49027L14.9735 3.05092L14.0426 4.01514L17.0214 7.10058L20.0002 4.01514L19.0693 3.05092L17.6796 4.49031V2.5C17.6796 1.11928 16.5991 0 15.2661 0Z" fill="#3D4D5C"/>
<path d="M3.63696 15.5096L5.02667 16.9491L5.95756 15.9848L2.97876 12.8994L0 15.9849L0.930893 16.9491L2.32048 15.5097V17.5C2.32048 18.8807 3.40106 20 4.73404 20H6.70876V18.6363H4.73404C4.12815 18.6363 3.63696 18.1276 3.63696 17.5V15.5096Z" fill="#3D4D5C"/>
<path d="M10.2556 1.43958C11.0432 1.43958 11.6818 2.10078 11.6819 2.91658V4.394H12.3997V5.13273H11.6819V8.18175H10.4666C10.3773 8.18175 10.2892 8.18757 10.2027 8.19784C10.3095 8.06868 10.3746 7.90122 10.3746 7.71779C10.3745 7.30988 10.0553 6.97908 9.66145 6.97908C9.26763 6.97908 8.94839 7.30988 8.94834 7.71779C8.94834 8.05162 9.16225 8.3333 9.45572 8.42481C8.76479 8.77841 8.28359 9.48286 8.24696 10.3033H4.78861V10.5494C4.78861 10.9573 4.46932 11.2881 4.07552 11.2881H2.88716C2.49335 11.2881 2.17408 10.9573 2.17404 10.5494V5.13273H1.46094V4.394H2.17404V2.91658C2.17413 2.10078 2.81265 1.43958 3.60026 1.43958H10.2556ZM4.19444 6.97908C3.80063 6.97908 3.48138 7.30988 3.48134 7.71779C3.48134 8.12575 3.8006 8.4565 4.19444 8.4565C4.58825 8.45646 4.90754 8.1257 4.90754 7.71779C4.9075 7.30993 4.58821 6.97913 4.19444 6.97908ZM3.60026 2.17829C3.20648 2.17829 2.88724 2.50871 2.88716 2.91658V5.6249H10.9687V2.91658C10.9687 2.50871 10.6495 2.17829 10.2556 2.17829H8.85763L8.50088 2.91658H5.35461L4.99825 2.17829H3.60026Z" fill="#3D4D5C"/>
<mask id="mask0_703_5207" style="mask-type:luminance" maskUnits="userSpaceOnUse" x="8" y="8" width="12" height="12">
<path d="M19.7556 8.28485H8.14355V19.8969H19.7556V8.28485Z" fill="white"/>
</mask>
<g mask="url(#mask0_703_5207)">
<path fill-rule="evenodd" clip-rule="evenodd" d="M8.38574 12.1555H9.59534V12.8813H8.38574V12.1555Z" fill="#3D4D5C"/>
<path fill-rule="evenodd" clip-rule="evenodd" d="M18.3047 12.1555H19.5191V12.8813H18.3047V12.1555Z" fill="#3D4D5C"/>
<path fill-rule="evenodd" clip-rule="evenodd" d="M18.5464 18.4454H16.6111V17.7196H11.2888V18.4454H9.35352V13.3651H18.5464V18.4454ZM11.8936 15.4214C11.8936 15.8223 11.5687 16.1472 11.1679 16.1472C10.7671 16.1472 10.4421 15.8223 10.4421 15.4214C10.4421 15.0206 10.7671 14.6957 11.1679 14.6957C11.5687 14.6957 11.8936 15.0206 11.8936 15.4214ZM16.732 16.1472C17.1328 16.1472 17.4578 15.8223 17.4578 15.4214C17.4578 15.0206 17.1328 14.6957 16.732 14.6957C16.3312 14.6957 16.0063 15.0206 16.0063 15.4214C16.0063 15.8223 16.3312 16.1472 16.732 16.1472Z" fill="#3D4D5C"/>
<path fill-rule="evenodd" clip-rule="evenodd" d="M11.7979 9.60266L12.6476 9.73635H15.2516L16.1013 9.60266L15.5506 10.704H12.3486L11.7979 9.60266Z" fill="#3D4D5C"/>
<path fill-rule="evenodd" clip-rule="evenodd" d="M10.5628 9.97828C10.162 9.97828 9.83706 10.3032 9.83706 10.704V18.2035H11.0467V17.2358H16.8527V18.2035H18.0623V10.704C18.0623 10.3032 17.7374 9.97828 17.3365 9.97828H10.5628ZM9.11133 10.704C9.11133 9.90237 9.76119 9.2525 10.5628 9.2525H17.3365C18.1382 9.2525 18.788 9.90237 18.788 10.704V18.2035C18.788 18.6043 18.4631 18.9292 18.0623 18.9292H16.8527C16.4519 18.9292 16.1269 18.6043 16.1269 18.2035V17.9616H11.7724V18.2035C11.7724 18.6043 11.4475 18.9292 11.0467 18.9292H9.83706C9.43626 18.9292 9.11133 18.6043 9.11133 18.2035V10.704Z" fill="#3D4D5C"/>
</g>
</g>
<defs>
<clipPath id="clip0_703_5207">
<rect width="20" height="20" fill="white"/>
</clipPath>
</defs>
</svg>
